<svg width="806" height="63" viewBox="0 0 806 63" fill="none" xmlns="http://www.w3.org/2000/svg">
<path d="M0.68 50L20.84 5.2H29.032L49.256 50H40.552L23.208 9.616H26.536L9.256 50H0.68ZM9.96 39.632L12.2 33.104H36.392L38.632 39.632H9.96ZM54.1855 50V2.512H62.1855V50H54.1855ZM72.6855 50V15.824H80.6855V50H72.6855ZM76.7175 10.192C75.2242 10.192 73.9868 9.72266 73.0055 8.784C72.0668 7.84533 71.5975 6.71467 71.5975 5.392C71.5975 4.02666 72.0668 2.896 73.0055 2C73.9868 1.06133 75.2242 0.591999 76.7175 0.591999C78.2108 0.591999 79.4268 1.04 80.3655 1.936C81.3468 2.78933 81.8375 3.87733 81.8375 5.2C81.8375 6.608 81.3682 7.80266 80.4295 8.784C79.4908 9.72266 78.2535 10.192 76.7175 10.192ZM112.242 50V43.088L111.794 41.616V29.52C111.794 27.1733 111.09 25.36 109.682 24.08C108.274 22.7573 106.14 22.096 103.282 22.096C101.362 22.096 99.4628 22.3947 97.5855 22.992C95.7508 23.5893 94.1935 24.4213 92.9135 25.488L89.7775 19.664C91.6122 18.256 93.7882 17.2107 96.3055 16.528C98.8655 15.8027 101.511 15.44 104.242 15.44C109.191 15.44 113.01 16.6347 115.698 19.024C118.428 21.3707 119.794 25.0187 119.794 29.968V50H112.242ZM101.49 50.448C98.9295 50.448 96.6895 50.0213 94.7695 49.168C92.8495 48.272 91.3562 47.056 90.2895 45.52C89.2655 43.9413 88.7535 42.1707 88.7535 40.208C88.7535 38.288 89.2015 36.56 90.0975 35.024C91.0362 33.488 92.5508 32.272 94.6415 31.376C96.7322 30.48 99.5055 30.032 102.962 30.032H112.882V35.344H103.538C100.807 35.344 98.9722 35.792 98.0335 36.688C97.0948 37.5413 96.6255 38.608 96.6255 39.888C96.6255 41.3387 97.2015 42.4907 98.3535 43.344C99.5055 44.1973 101.106 44.624 103.154 44.624C105.116 44.624 106.866 44.176 108.402 43.28C109.98 42.384 111.111 41.0613 111.794 39.312L113.138 44.112C112.37 46.1173 110.983 47.6747 108.978 48.784C107.015 49.8933 104.519 50.448 101.49 50.448ZM144.587 50.448C141.302 50.448 138.336 49.7227 135.691 48.272C133.088 46.7787 131.04 44.7307 129.547 42.128C128.054 39.5253 127.307 36.4533 127.307 32.912C127.307 29.3707 128.054 26.2987 129.547 23.696C131.04 21.0933 133.088 19.0667 135.691 17.616C138.336 16.1653 141.302 15.44 144.587 15.44C147.446 15.44 150.006 16.08 152.267 17.36C154.528 18.5973 156.32 20.496 157.643 23.056C158.966 25.616 159.627 28.9013 159.627 32.912C159.627 36.88 158.987 40.1653 157.707 42.768C156.427 45.328 154.656 47.248 152.395 48.528C150.134 49.808 147.531 50.448 144.587 50.448ZM145.547 43.6C147.467 43.6 149.174 43.1733 150.667 42.32C152.203 41.4667 153.419 40.2293 154.315 38.608C155.254 36.9867 155.723 35.088 155.723 32.912C155.723 30.6933 155.254 28.7947 154.315 27.216C153.419 25.5947 152.203 24.3573 150.667 23.504C149.174 22.6507 147.467 22.224 145.547 22.224C143.627 22.224 141.899 22.6507 140.363 23.504C138.87 24.3573 137.654 25.5947 136.715 27.216C135.819 28.7947 135.371 30.6933 135.371 32.912C135.371 35.088 135.819 36.9867 136.715 38.608C137.654 40.2293 138.87 41.4667 140.363 42.32C141.899 43.1733 143.627 43.6 145.547 43.6ZM155.915 50V41.936L156.235 32.848L155.595 23.76V2.512H163.531V50H155.915ZM189.421 50.448C185.922 50.448 182.807 49.7013 180.077 48.208C177.346 46.672 175.191 44.5813 173.613 41.936C172.034 39.2907 171.245 36.2827 171.245 32.912C171.245 29.4987 172.034 26.4907 173.613 23.888C175.191 21.2427 177.346 19.1733 180.077 17.68C182.807 16.1867 185.922 15.44 189.421 15.44C192.962 15.44 196.098 16.1867 198.829 17.68C201.602 19.1733 203.757 21.2213 205.293 23.824C206.871 26.4267 207.661 29.456 207.661 32.912C207.661 36.2827 206.871 39.2907 205.293 41.936C203.757 44.5813 201.602 46.672 198.829 48.208C196.098 49.7013 192.962 50.448 189.421 50.448ZM189.421 43.6C191.383 43.6 193.133 43.1733 194.669 42.32C196.205 41.4667 197.399 40.2293 198.253 38.608C199.149 36.9867 199.597 35.088 199.597 32.912C199.597 30.6933 199.149 28.7947 198.253 27.216C197.399 25.5947 196.205 24.3573 194.669 23.504C193.133 22.6507 191.405 22.224 189.485 22.224C187.522 22.224 185.773 22.6507 184.237 23.504C182.743 24.3573 181.549 25.5947 180.653 27.216C179.757 28.7947 179.309 30.6933 179.309 32.912C179.309 35.088 179.757 36.9867 180.653 38.608C181.549 40.2293 182.743 41.4667 184.237 42.32C185.773 43.1733 187.501 43.6 189.421 43.6ZM252.39 15.44C255.121 15.44 257.553 15.9733 259.686 17.04C261.862 18.1067 263.569 19.7493 264.806 21.968C266.043 24.144 266.662 26.96 266.662 30.416V50H258.662V31.44C258.662 28.4107 257.937 26.1493 256.486 24.656C255.078 23.1627 253.094 22.416 250.534 22.416C248.657 22.416 246.993 22.8 245.542 23.568C244.091 24.336 242.961 25.488 242.15 27.024C241.382 28.5173 240.998 30.416 240.998 32.72V50H232.998V15.824H240.614V25.04L239.27 22.224C240.465 20.048 242.193 18.384 244.454 17.232C246.758 16.0373 249.403 15.44 252.39 15.44ZM297.867 50V43.088L297.419 41.616V29.52C297.419 27.1733 296.715 25.36 295.307 24.08C293.899 22.7573 291.765 22.096 288.907 22.096C286.987 22.096 285.088 22.3947 283.211 22.992C281.376 23.5893 279.819 24.4213 278.539 25.488L275.403 19.664C277.237 18.256 279.413 17.2107 281.931 16.528C284.491 15.8027 287.136 15.44 289.867 15.44C294.816 15.44 298.635 16.6347 301.323 19.024C304.053 21.3707 305.419 25.0187 305.419 29.968V50H297.867ZM287.115 50.448C284.555 50.448 282.315 50.0213 280.395 49.168C278.475 48.272 276.981 47.056 275.915 45.52C274.891 43.9413 274.379 42.1707 274.379 40.208C274.379 38.288 274.827 36.56 275.723 35.024C276.661 33.488 278.176 32.272 280.267 31.376C282.357 30.48 285.131 30.032 288.587 30.032H298.507V35.344H289.163C286.432 35.344 284.597 35.792 283.659 36.688C282.72 37.5413 282.251 38.608 282.251 39.888C282.251 41.3387 282.827 42.4907 283.979 43.344C285.131 44.1973 286.731 44.624 288.779 44.624C290.741 44.624 292.491 44.176 294.027 43.28C295.605 42.384 296.736 41.0613 297.419 39.312L298.763 44.112C297.995 46.1173 296.608 47.6747 294.603 48.784C292.64 49.8933 290.144 50.448 287.115 50.448ZM352.317 50.448C349.544 50.448 347.005 49.808 344.701 48.528C342.44 47.248 340.626 45.328 339.261 42.768C337.938 40.1653 337.277 36.88 337.277 32.912C337.277 28.9013 337.917 25.616 339.197 23.056C340.52 20.496 342.312 18.5973 344.573 17.36C346.834 16.08 349.416 15.44 352.317 15.44C355.688 15.44 358.653 16.1653 361.213 17.616C363.816 19.0667 365.864 21.0933 367.357 23.696C368.893 26.2987 369.661 29.3707 369.661 32.912C369.661 36.4533 368.893 39.5467 367.357 42.192C365.864 44.7947 363.816 46.8213 361.213 48.272C358.653 49.7227 355.688 50.448 352.317 50.448ZM333.373 62.416V15.824H340.989V23.888L340.733 32.976L341.373 42.064V62.416H333.373ZM351.421 43.6C353.341 43.6 355.048 43.1733 356.541 42.32C358.077 41.4667 359.293 40.2293 360.189 38.608C361.085 36.9867 361.533 35.088 361.533 32.912C361.533 30.6933 361.085 28.7947 360.189 27.216C359.293 25.5947 358.077 24.3573 356.541 23.504C355.048 22.6507 353.341 22.224 351.421 22.224C349.501 22.224 347.773 22.6507 346.237 23.504C344.701 24.3573 343.485 25.5947 342.589 27.216C341.693 28.7947 341.245 30.6933 341.245 32.912C341.245 35.088 341.693 36.9867 342.589 38.608C343.485 40.2293 344.701 41.4667 346.237 42.32C347.773 43.1733 349.501 43.6 351.421 43.6ZM393.312 50.448C389.515 50.448 386.187 49.7013 383.328 48.208C380.512 46.672 378.315 44.5813 376.736 41.936C375.2 39.2907 374.432 36.2827 374.432 32.912C374.432 29.4987 375.179 26.4907 376.672 23.888C378.208 21.2427 380.299 19.1733 382.944 17.68C385.632 16.1867 388.683 15.44 392.096 15.44C395.424 15.44 398.389 16.1653 400.992 17.616C403.595 19.0667 405.643 21.1147 407.136 23.76C408.629 26.4053 409.376 29.52 409.376 33.104C409.376 33.4453 409.355 33.8293 409.312 34.256C409.312 34.6827 409.291 35.088 409.248 35.472H380.768V30.16H405.024L401.888 31.824C401.931 29.8613 401.525 28.1333 400.672 26.64C399.819 25.1467 398.645 23.9733 397.152 23.12C395.701 22.2667 394.016 21.84 392.096 21.84C390.133 21.84 388.405 22.2667 386.912 23.12C385.461 23.9733 384.309 25.168 383.456 26.704C382.645 28.1973 382.24 29.968 382.24 32.016V33.296C382.24 35.344 382.709 37.1573 383.648 38.736C384.587 40.3147 385.909 41.5307 387.616 42.384C389.323 43.2373 391.285 43.664 393.504 43.664C395.424 43.664 397.152 43.3653 398.688 42.768C400.224 42.1707 401.589 41.232 402.784 39.952L407.072 44.88C405.536 46.672 403.595 48.0587 401.248 49.04C398.944 49.9787 396.299 50.448 393.312 50.448ZM417.061 50V15.824H424.677V25.232L423.781 22.48C424.805 20.176 426.405 18.4267 428.581 17.232C430.799 16.0373 433.551 15.44 436.837 15.44V23.056C436.495 22.9707 436.175 22.928 435.877 22.928C435.578 22.8853 435.279 22.864 434.981 22.864C431.951 22.864 429.541 23.76 427.749 25.552C425.957 27.3013 425.061 29.9253 425.061 33.424V50H417.061ZM458.991 50.448C455.407 50.448 452.207 49.7013 449.391 48.208C446.617 46.672 444.441 44.5813 442.863 41.936C441.284 39.2907 440.495 36.2827 440.495 32.912C440.495 29.4987 441.284 26.4907 442.863 23.888C444.441 21.2427 446.617 19.1733 449.391 17.68C452.207 16.1867 455.407 15.44 458.991 15.44C462.319 15.44 465.241 16.1227 467.759 17.488C470.319 18.8107 472.26 20.7733 473.583 23.376L467.439 26.96C466.415 25.3387 465.156 24.144 463.663 23.376C462.212 22.608 460.633 22.224 458.927 22.224C456.964 22.224 455.193 22.6507 453.615 23.504C452.036 24.3573 450.799 25.5947 449.903 27.216C449.007 28.7947 448.559 30.6933 448.559 32.912C448.559 35.1307 449.007 37.0507 449.903 38.672C450.799 40.2507 452.036 41.4667 453.615 42.32C455.193 43.1733 456.964 43.6 458.927 43.6C460.633 43.6 462.212 43.216 463.663 42.448C465.156 41.68 466.415 40.4853 467.439 38.864L473.583 42.448C472.26 45.008 470.319 46.992 467.759 48.4C465.241 49.7653 462.319 50.448 458.991 50.448ZM501.554 50V43.088L501.106 41.616V29.52C501.106 27.1733 500.402 25.36 498.994 24.08C497.586 22.7573 495.453 22.096 492.594 22.096C490.674 22.096 488.775 22.3947 486.898 22.992C485.063 23.5893 483.506 24.4213 482.226 25.488L479.09 19.664C480.925 18.256 483.101 17.2107 485.618 16.528C488.178 15.8027 490.823 15.44 493.554 15.44C498.503 15.44 502.322 16.6347 505.01 19.024C507.741 21.3707 509.106 25.0187 509.106 29.968V50H501.554ZM490.802 50.448C488.242 50.448 486.002 50.0213 484.082 49.168C482.162 48.272 480.669 47.056 479.602 45.52C478.578 43.9413 478.066 42.1707 478.066 40.208C478.066 38.288 478.514 36.56 479.41 35.024C480.349 33.488 481.863 32.272 483.954 31.376C486.045 30.48 488.818 30.032 492.274 30.032H502.194V35.344H492.85C490.119 35.344 488.285 35.792 487.346 36.688C486.407 37.5413 485.938 38.608 485.938 39.888C485.938 41.3387 486.514 42.4907 487.666 43.344C488.818 44.1973 490.418 44.624 492.466 44.624C494.429 44.624 496.178 44.176 497.714 43.28C499.293 42.384 500.423 41.0613 501.106 39.312L502.45 44.112C501.682 46.1173 500.295 47.6747 498.29 48.784C496.327 49.8933 493.831 50.448 490.802 50.448ZM551.525 50.448C548.239 50.448 545.274 49.7227 542.629 48.272C540.026 46.7787 537.978 44.7307 536.485 42.128C534.991 39.5253 534.245 36.4533 534.245 32.912C534.245 29.3707 534.991 26.2987 536.485 23.696C537.978 21.0933 540.026 19.0667 542.629 17.616C545.274 16.1653 548.239 15.44 551.525 15.44C554.383 15.44 556.943 16.08 559.205 17.36C561.466 18.5973 563.258 20.496 564.581 23.056C565.903 25.616 566.565 28.9013 566.565 32.912C566.565 36.88 565.925 40.1653 564.645 42.768C563.365 45.328 561.594 47.248 559.333 48.528C557.071 49.808 554.469 50.448 551.525 50.448ZM552.485 43.6C554.405 43.6 556.111 43.1733 557.605 42.32C559.141 41.4667 560.357 40.2293 561.253 38.608C562.191 36.9867 562.661 35.088 562.661 32.912C562.661 30.6933 562.191 28.7947 561.253 27.216C560.357 25.5947 559.141 24.3573 557.605 23.504C556.111 22.6507 554.405 22.224 552.485 22.224C550.565 22.224 548.837 22.6507 547.301 23.504C545.807 24.3573 544.591 25.5947 543.653 27.216C542.757 28.7947 542.309 30.6933 542.309 32.912C542.309 35.088 542.757 36.9867 543.653 38.608C544.591 40.2293 545.807 41.4667 547.301 42.32C548.837 43.1733 550.565 43.6 552.485 43.6ZM562.853 50V41.936L563.173 32.848L562.533 23.76V2.512H570.469V50H562.853ZM597.062 50.448C593.265 50.448 589.937 49.7013 587.078 48.208C584.262 46.672 582.065 44.5813 580.486 41.936C578.95 39.2907 578.182 36.2827 578.182 32.912C578.182 29.4987 578.929 26.4907 580.422 23.888C581.958 21.2427 584.049 19.1733 586.694 17.68C589.382 16.1867 592.433 15.44 595.846 15.44C599.174 15.44 602.139 16.1653 604.742 17.616C607.345 19.0667 609.393 21.1147 610.886 23.76C612.379 26.4053 613.126 29.52 613.126 33.104C613.126 33.4453 613.105 33.8293 613.062 34.256C613.062 34.6827 613.041 35.088 612.998 35.472H584.518V30.16H608.774L605.638 31.824C605.681 29.8613 605.275 28.1333 604.422 26.64C603.569 25.1467 602.395 23.9733 600.902 23.12C599.451 22.2667 597.766 21.84 595.846 21.84C593.883 21.84 592.155 22.2667 590.662 23.12C589.211 23.9733 588.059 25.168 587.206 26.704C586.395 28.1973 585.99 29.968 585.99 32.016V33.296C585.99 35.344 586.459 37.1573 587.398 38.736C588.337 40.3147 589.659 41.5307 591.366 42.384C593.073 43.2373 595.035 43.664 597.254 43.664C599.174 43.664 600.902 43.3653 602.438 42.768C603.974 42.1707 605.339 41.232 606.534 39.952L610.822 44.88C609.286 46.672 607.345 48.0587 604.998 49.04C602.694 49.9787 600.049 50.448 597.062 50.448ZM657.442 50.448C654.669 50.448 652.13 49.808 649.826 48.528C647.565 47.248 645.751 45.328 644.386 42.768C643.063 40.1653 642.402 36.88 642.402 32.912C642.402 28.9013 643.042 25.616 644.322 23.056C645.645 20.496 647.437 18.5973 649.698 17.36C651.959 16.08 654.541 15.44 657.442 15.44C660.813 15.44 663.778 16.1653 666.338 17.616C668.941 19.0667 670.989 21.0933 672.482 23.696C674.018 26.2987 674.786 29.3707 674.786 32.912C674.786 36.4533 674.018 39.5467 672.482 42.192C670.989 44.7947 668.941 46.8213 666.338 48.272C663.778 49.7227 660.813 50.448 657.442 50.448ZM638.498 62.416V15.824H646.114V23.888L645.858 32.976L646.498 42.064V62.416H638.498ZM656.546 43.6C658.466 43.6 660.173 43.1733 661.666 42.32C663.202 41.4667 664.418 40.2293 665.314 38.608C666.21 36.9867 666.658 35.088 666.658 32.912C666.658 30.6933 666.21 28.7947 665.314 27.216C664.418 25.5947 663.202 24.3573 661.666 23.504C660.173 22.6507 658.466 22.224 656.546 22.224C654.626 22.224 652.898 22.6507 651.362 23.504C649.826 24.3573 648.61 25.5947 647.714 27.216C646.818 28.7947 646.37 30.6933 646.37 32.912C646.37 35.088 646.818 36.9867 647.714 38.608C648.61 40.2293 649.826 41.4667 651.362 42.32C652.898 43.1733 654.626 43.6 656.546 43.6ZM698.437 50.448C694.64 50.448 691.312 49.7013 688.453 48.208C685.637 46.672 683.44 44.5813 681.861 41.936C680.325 39.2907 679.557 36.2827 679.557 32.912C679.557 29.4987 680.304 26.4907 681.797 23.888C683.333 21.2427 685.424 19.1733 688.069 17.68C690.757 16.1867 693.808 15.44 697.221 15.44C700.549 15.44 703.514 16.1653 706.117 17.616C708.72 19.0667 710.768 21.1147 712.261 23.76C713.754 26.4053 714.501 29.52 714.501 33.104C714.501 33.4453 714.48 33.8293 714.437 34.256C714.437 34.6827 714.416 35.088 714.373 35.472H685.893V30.16H710.149L707.013 31.824C707.056 29.8613 706.65 28.1333 705.797 26.64C704.944 25.1467 703.77 23.9733 702.277 23.12C700.826 22.2667 699.141 21.84 697.221 21.84C695.258 21.84 693.53 22.2667 692.037 23.12C690.586 23.9733 689.434 25.168 688.581 26.704C687.77 28.1973 687.365 29.968 687.365 32.016V33.296C687.365 35.344 687.834 37.1573 688.773 38.736C689.712 40.3147 691.034 41.5307 692.741 42.384C694.448 43.2373 696.41 43.664 698.629 43.664C700.549 43.664 702.277 43.3653 703.813 42.768C705.349 42.1707 706.714 41.232 707.909 39.952L712.197 44.88C710.661 46.672 708.72 48.0587 706.373 49.04C704.069 49.9787 701.424 50.448 698.437 50.448ZM732.746 50.448C729.887 50.448 727.135 50.0853 724.49 49.36C721.887 48.592 719.818 47.6747 718.282 46.608L721.354 40.528C722.89 41.5093 724.724 42.32 726.858 42.96C728.991 43.6 731.124 43.92 733.258 43.92C735.775 43.92 737.588 43.5787 738.698 42.896C739.85 42.2133 740.426 41.296 740.426 40.144C740.426 39.2053 740.042 38.5013 739.274 38.032C738.506 37.52 737.503 37.136 736.266 36.88C735.028 36.624 733.642 36.3893 732.106 36.176C730.612 35.9627 729.098 35.6853 727.562 35.344C726.068 34.96 724.703 34.4267 723.466 33.744C722.228 33.0187 721.226 32.0587 720.458 30.864C719.69 29.6693 719.306 28.0907 719.306 26.128C719.306 23.952 719.924 22.0747 721.161 20.496C722.399 18.8747 724.127 17.6373 726.345 16.784C728.607 15.888 731.274 15.44 734.346 15.44C736.65 15.44 738.975 15.696 741.322 16.208C743.668 16.72 745.61 17.4453 747.146 18.384L744.074 24.464C742.452 23.4827 740.81 22.8213 739.146 22.48C737.524 22.096 735.903 21.904 734.282 21.904C731.85 21.904 730.036 22.2667 728.842 22.992C727.69 23.7173 727.114 24.6347 727.114 25.744C727.114 26.768 727.498 27.536 728.266 28.048C729.034 28.56 730.036 28.9653 731.274 29.264C732.511 29.5627 733.876 29.8187 735.37 30.032C736.906 30.2027 738.42 30.48 739.914 30.864C741.407 31.248 742.772 31.7813 744.01 32.464C745.29 33.104 746.314 34.0213 747.082 35.216C747.85 36.4107 748.234 37.968 748.234 39.888C748.234 42.0213 747.594 43.8773 746.314 45.456C745.076 47.0347 743.306 48.272 741.002 49.168C738.698 50.0213 735.946 50.448 732.746 50.448ZM770.483 50.448C766.984 50.448 763.87 49.7013 761.139 48.208C758.408 46.672 756.254 44.5813 754.675 41.936C753.096 39.2907 752.307 36.2827 752.307 32.912C752.307 29.4987 753.096 26.4907 754.675 23.888C756.254 21.2427 758.408 19.1733 761.139 17.68C763.87 16.1867 766.984 15.44 770.483 15.44C774.024 15.44 777.16 16.1867 779.891 17.68C782.664 19.1733 784.819 21.2213 786.355 23.824C787.934 26.4267 788.723 29.456 788.723 32.912C788.723 36.2827 787.934 39.2907 786.355 41.936C784.819 44.5813 782.664 46.672 779.891 48.208C777.16 49.7013 774.024 50.448 770.483 50.448ZM770.483 43.6C772.446 43.6 774.195 43.1733 775.731 42.32C777.267 41.4667 778.462 40.2293 779.315 38.608C780.211 36.9867 780.659 35.088 780.659 32.912C780.659 30.6933 780.211 28.7947 779.315 27.216C778.462 25.5947 777.267 24.3573 775.731 23.504C774.195 22.6507 772.467 22.224 770.547 22.224C768.584 22.224 766.835 22.6507 765.299 23.504C763.806 24.3573 762.611 25.5947 761.715 27.216C760.819 28.7947 760.371 30.6933 760.371 32.912C760.371 35.088 760.819 36.9867 761.715 38.608C762.611 40.2293 763.806 41.4667 765.299 42.32C766.835 43.1733 768.563 43.6 770.483 43.6ZM796.885 35.152L795.349 5.2H804.821L803.221 35.152H796.885ZM800.085 50.448C798.592 50.448 797.354 49.9573 796.373 48.976C795.392 47.9947 794.901 46.8213 794.901 45.456C794.901 44.0907 795.392 42.9387 796.373 42C797.354 41.0187 798.592 40.528 800.085 40.528C801.578 40.528 802.794 41.0187 803.733 42C804.672 42.9387 805.141 44.0907 805.141 45.456C805.141 46.8213 804.672 47.9947 803.733 48.976C802.794 49.9573 801.578 50.448 800.085 50.448Z" fill="white"/>
</svg>
