<svg width="834" height="38" viewBox="0 0 834 38" fill="none" xmlns="http://www.w3.org/2000/svg">
<path d="M14.72 30.24C11.9467 30.24 9.44 29.6267 7.2 28.4C4.98667 27.1733 3.24 25.48 1.96 23.32C0.706667 21.1333 0.08 18.6933 0.08 16C0.08 13.3067 0.706667 10.88 1.96 8.72C3.24 6.53333 5 4.82667 7.24 3.6C9.48 2.37333 11.9867 1.76 14.76 1.76C16.84 1.76 18.76 2.10667 20.52 2.8C22.28 3.49333 23.7733 4.50667 25 5.84L23.12 7.72C20.9333 5.50666 18.1733 4.4 14.84 4.4C12.6267 4.4 10.6133 4.90666 8.8 5.92C6.98667 6.93333 5.56 8.32 4.52 10.08C3.50667 11.84 3 13.8133 3 16C3 18.1867 3.50667 20.16 4.52 21.92C5.56 23.68 6.98667 25.0667 8.8 26.08C10.6133 27.0933 12.6267 27.6 14.84 27.6C18.2 27.6 20.96 26.48 23.12 24.24L25 26.12C23.7733 27.4533 22.2667 28.48 20.48 29.2C18.72 29.8933 16.8 30.24 14.72 30.24ZM48.9725 8.96V30H46.2525V25.84C45.3992 27.2533 44.2658 28.3333 42.8525 29.08C41.4658 29.8267 39.8925 30.2 38.1325 30.2C36.1592 30.2 34.3725 29.7467 32.7725 28.84C31.1725 27.9333 29.9192 26.6667 29.0125 25.04C28.1058 23.4133 27.6525 21.56 27.6525 19.48C27.6525 17.4 28.1058 15.5467 29.0125 13.92C29.9192 12.2933 31.1725 11.04 32.7725 10.16C34.3725 9.25333 36.1592 8.8 38.1325 8.8C39.8392 8.8 41.3725 9.16 42.7325 9.88C44.1192 10.5733 45.2525 11.6 46.1325 12.96V8.96H48.9725ZM38.3725 27.68C39.8392 27.68 41.1592 27.3467 42.3325 26.68C43.5325 25.9867 44.4658 25.0133 45.1325 23.76C45.8258 22.5067 46.1725 21.08 46.1725 19.48C46.1725 17.88 45.8258 16.4533 45.1325 15.2C44.4658 13.9467 43.5325 12.9867 42.3325 12.32C41.1592 11.6267 39.8392 11.28 38.3725 11.28C36.8792 11.28 35.5325 11.6267 34.3325 12.32C33.1592 12.9867 32.2258 13.9467 31.5325 15.2C30.8658 16.4533 30.5325 17.88 30.5325 19.48C30.5325 21.08 30.8658 22.5067 31.5325 23.76C32.2258 25.0133 33.1592 25.9867 34.3325 26.68C35.5325 27.3467 36.8792 27.68 38.3725 27.68ZM41.8525 0.719998H45.6525L39.1725 5.68H36.3725L41.8525 0.719998ZM67.7219 8.8C69.6952 8.8 71.4819 9.25333 73.0819 10.16C74.6819 11.04 75.9352 12.2933 76.8419 13.92C77.7485 15.5467 78.2019 17.4 78.2019 19.48C78.2019 21.5867 77.7485 23.4533 76.8419 25.08C75.9352 26.7067 74.6819 27.9733 73.0819 28.88C71.5085 29.76 69.7219 30.2 67.7219 30.2C66.0152 30.2 64.4685 29.8533 63.0819 29.16C61.7219 28.44 60.6019 27.4 59.7219 26.04V37.76H56.8819V8.96H59.6019V13.12C60.4552 11.7333 61.5752 10.6667 62.9619 9.92C64.3752 9.17333 65.9619 8.8 67.7219 8.8ZM67.5219 27.68C68.9885 27.68 70.3219 27.3467 71.5219 26.68C72.7219 25.9867 73.6552 25.0133 74.3219 23.76C75.0152 22.5067 75.3619 21.08 75.3619 19.48C75.3619 17.88 75.0152 16.4667 74.3219 15.24C73.6552 13.9867 72.7219 13.0133 71.5219 12.32C70.3219 11.6267 68.9885 11.28 67.5219 11.28C66.0285 11.28 64.6819 11.6267 63.4819 12.32C62.3085 13.0133 61.3752 13.9867 60.6819 15.24C60.0152 16.4667 59.6819 17.88 59.6819 19.48C59.6819 21.08 60.0152 22.5067 60.6819 23.76C61.3752 25.0133 62.3085 25.9867 63.4819 26.68C64.6819 27.3467 66.0285 27.68 67.5219 27.68ZM89.6313 30.2C87.9246 30.2 86.2846 29.96 84.7113 29.48C83.1646 28.9733 81.9513 28.3467 81.0713 27.6L82.3513 25.36C83.2313 26.0533 84.3379 26.6267 85.6713 27.08C87.0046 27.5067 88.3913 27.72 89.8313 27.72C91.7513 27.72 93.1646 27.4267 94.0713 26.84C95.0046 26.2267 95.4713 25.3733 95.4713 24.28C95.4713 23.5067 95.2179 22.9067 94.7113 22.48C94.2046 22.0267 93.5646 21.6933 92.7913 21.48C92.0179 21.24 90.9913 21.0133 89.7113 20.8C88.0046 20.48 86.6313 20.16 85.5913 19.84C84.5513 19.4933 83.6579 18.92 82.9113 18.12C82.1913 17.32 81.8313 16.2133 81.8313 14.8C81.8313 13.04 82.5646 11.6 84.0313 10.48C85.4979 9.36 87.5379 8.8 90.1513 8.8C91.5113 8.8 92.8713 8.98667 94.2313 9.36C95.5913 9.70667 96.7113 10.1733 97.5913 10.76L96.3513 13.04C94.6179 11.84 92.5513 11.24 90.1513 11.24C88.3379 11.24 86.9646 11.56 86.0313 12.2C85.1246 12.84 84.6713 13.68 84.6713 14.72C84.6713 15.52 84.9246 16.16 85.4313 16.64C85.9646 17.12 86.6179 17.48 87.3913 17.72C88.1646 17.9333 89.2313 18.16 90.5912 18.4C92.2713 18.72 93.6179 19.04 94.6313 19.36C95.6446 19.68 96.5113 20.2267 97.2313 21C97.9513 21.7733 98.3113 22.84 98.3113 24.2C98.3113 26.04 97.5379 27.5067 95.9913 28.6C94.4713 29.6667 92.3513 30.2 89.6313 30.2ZM122.522 8.96V30H119.802V26.16C119.055 27.44 118.028 28.44 116.722 29.16C115.415 29.8533 113.922 30.2 112.242 30.2C109.495 30.2 107.322 29.44 105.722 27.92C104.148 26.3733 103.362 24.12 103.362 21.16V8.96H106.202V20.88C106.202 23.0933 106.748 24.7733 107.842 25.92C108.935 27.0667 110.495 27.64 112.522 27.64C114.735 27.64 116.482 26.9733 117.762 25.64C119.042 24.28 119.682 22.4 119.682 20V8.96H122.522ZM136.396 30.2C134.502 30.2 133.036 29.6667 131.996 28.6C130.982 27.5333 130.476 26.0533 130.476 24.16V0.319998H133.316V23.92C133.316 25.1733 133.609 26.1333 134.196 26.8C134.782 27.44 135.662 27.76 136.836 27.76C137.582 27.76 138.222 27.64 138.756 27.4L138.956 29.76C138.129 30.0533 137.276 30.2 136.396 30.2ZM161.629 8.96V30H158.909V25.84C158.055 27.2533 156.922 28.3333 155.509 29.08C154.122 29.8267 152.549 30.2 150.789 30.2C148.815 30.2 147.029 29.7467 145.429 28.84C143.829 27.9333 142.575 26.6667 141.669 25.04C140.762 23.4133 140.309 21.56 140.309 19.48C140.309 17.4 140.762 15.5467 141.669 13.92C142.575 12.2933 143.829 11.04 145.429 10.16C147.029 9.25333 148.815 8.8 150.789 8.8C152.495 8.8 154.029 9.16 155.389 9.88C156.775 10.5733 157.909 11.6 158.789 12.96V8.96H161.629ZM151.029 27.68C152.495 27.68 153.815 27.3467 154.989 26.68C156.189 25.9867 157.122 25.0133 157.789 23.76C158.482 22.5067 158.829 21.08 158.829 19.48C158.829 17.88 158.482 16.4533 157.789 15.2C157.122 13.9467 156.189 12.9867 154.989 12.32C153.815 11.6267 152.495 11.28 151.029 11.28C149.535 11.28 148.189 11.6267 146.989 12.32C145.815 12.9867 144.882 13.9467 144.189 15.2C143.522 16.4533 143.189 17.88 143.189 19.48C143.189 21.08 143.522 22.5067 144.189 23.76C144.882 25.0133 145.815 25.9867 146.989 26.68C148.189 27.3467 149.535 27.68 151.029 27.68ZM175.178 30.2C173.471 30.2 171.831 29.96 170.258 29.48C168.711 28.9733 167.498 28.3467 166.618 27.6L167.898 25.36C168.778 26.0533 169.885 26.6267 171.218 27.08C172.551 27.5067 173.938 27.72 175.378 27.72C177.298 27.72 178.711 27.4267 179.618 26.84C180.551 26.2267 181.018 25.3733 181.018 24.28C181.018 23.5067 180.765 22.9067 180.258 22.48C179.751 22.0267 179.111 21.6933 178.338 21.48C177.565 21.24 176.538 21.0133 175.258 20.8C173.551 20.48 172.178 20.16 171.138 19.84C170.098 19.4933 169.205 18.92 168.458 18.12C167.738 17.32 167.378 16.2133 167.378 14.8C167.378 13.04 168.111 11.6 169.578 10.48C171.045 9.36 173.085 8.8 175.698 8.8C177.058 8.8 178.418 8.98667 179.778 9.36C181.138 9.70667 182.258 10.1733 183.138 10.76L181.898 13.04C180.165 11.84 178.098 11.24 175.698 11.24C173.885 11.24 172.511 11.56 171.578 12.2C170.671 12.84 170.218 13.68 170.218 14.72C170.218 15.52 170.471 16.16 170.978 16.64C171.511 17.12 172.165 17.48 172.938 17.72C173.711 17.9333 174.778 18.16 176.138 18.4C177.818 18.72 179.165 19.04 180.178 19.36C181.191 19.68 182.058 20.2267 182.778 21C183.498 21.7733 183.858 22.84 183.858 24.2C183.858 26.04 183.085 27.5067 181.538 28.6C180.018 29.6667 177.898 30.2 175.178 30.2ZM218.777 0.319998V30H216.057V25.84C215.204 27.2533 214.071 28.3333 212.657 29.08C211.271 29.8267 209.697 30.2 207.937 30.2C205.964 30.2 204.177 29.7467 202.577 28.84C200.977 27.9333 199.724 26.6667 198.817 25.04C197.911 23.4133 197.457 21.56 197.457 19.48C197.457 17.4 197.911 15.5467 198.817 13.92C199.724 12.2933 200.977 11.04 202.577 10.16C204.177 9.25333 205.964 8.8 207.937 8.8C209.644 8.8 211.177 9.16 212.537 9.88C213.924 10.5733 215.057 11.6 215.937 12.96V0.319998H218.777ZM208.177 27.68C209.644 27.68 210.964 27.3467 212.137 26.68C213.337 25.9867 214.271 25.0133 214.937 23.76C215.631 22.5067 215.977 21.08 215.977 19.48C215.977 17.88 215.631 16.4533 214.937 15.2C214.271 13.9467 213.337 12.9867 212.137 12.32C210.964 11.6267 209.644 11.28 208.177 11.28C206.684 11.28 205.337 11.6267 204.137 12.32C202.964 12.9867 202.031 13.9467 201.337 15.2C200.671 16.4533 200.337 17.88 200.337 19.48C200.337 21.08 200.671 22.5067 201.337 23.76C202.031 25.0133 202.964 25.9867 204.137 26.68C205.337 27.3467 206.684 27.68 208.177 27.68ZM235.687 27.68C236.993 27.68 238.193 27.4533 239.287 27C240.407 26.52 241.353 25.8267 242.127 24.92L243.727 26.76C242.793 27.88 241.633 28.7333 240.247 29.32C238.86 29.9067 237.327 30.2 235.647 30.2C233.487 30.2 231.567 29.7467 229.887 28.84C228.207 27.9067 226.9 26.6267 225.967 25C225.033 23.3733 224.567 21.5333 224.567 19.48C224.567 17.4267 225.007 15.5867 225.887 13.96C226.793 12.3333 228.033 11.0667 229.607 10.16C231.18 9.25333 232.967 8.8 234.967 8.8C236.833 8.8 238.513 9.22667 240.007 10.08C241.527 10.9333 242.727 12.12 243.607 13.64C244.513 15.16 244.993 16.8933 245.047 18.84L227.767 22.2C228.3 23.9067 229.26 25.2533 230.647 26.24C232.06 27.2 233.74 27.68 235.687 27.68ZM234.967 11.24C233.5 11.24 232.18 11.5867 231.007 12.28C229.86 12.9467 228.953 13.8933 228.287 15.12C227.647 16.32 227.327 17.7067 227.327 19.28C227.327 19.68 227.34 19.9733 227.367 20.16L242.207 17.28C241.887 15.52 241.073 14.08 239.767 12.96C238.46 11.8133 236.86 11.24 234.967 11.24ZM270.296 27.68C271.603 27.68 272.803 27.4533 273.896 27C275.016 26.52 275.963 25.8267 276.736 24.92L278.336 26.76C277.403 27.88 276.243 28.7333 274.856 29.32C273.469 29.9067 271.936 30.2 270.256 30.2C268.096 30.2 266.176 29.7467 264.496 28.84C262.816 27.9067 261.509 26.6267 260.576 25C259.643 23.3733 259.176 21.5333 259.176 19.48C259.176 17.4267 259.616 15.5867 260.496 13.96C261.403 12.3333 262.643 11.0667 264.216 10.16C265.789 9.25333 267.576 8.8 269.576 8.8C271.443 8.8 273.123 9.22667 274.616 10.08C276.136 10.9333 277.336 12.12 278.216 13.64C279.123 15.16 279.603 16.8933 279.656 18.84L262.376 22.2C262.909 23.9067 263.869 25.2533 265.256 26.24C266.669 27.2 268.349 27.68 270.296 27.68ZM269.576 11.24C268.109 11.24 266.789 11.5867 265.616 12.28C264.469 12.9467 263.563 13.8933 262.896 15.12C262.256 16.32 261.936 17.7067 261.936 19.28C261.936 19.68 261.949 19.9733 261.976 20.16L276.816 17.28C276.496 15.52 275.683 14.08 274.376 12.96C273.069 11.8133 271.469 11.24 269.576 11.24ZM311.677 8.8C314.317 8.8 316.383 9.56 317.877 11.08C319.397 12.6 320.157 14.84 320.157 17.8V30H317.317V18.08C317.317 15.8933 316.783 14.2267 315.717 13.08C314.677 11.9333 313.197 11.36 311.277 11.36C309.09 11.36 307.37 12.04 306.117 13.4C304.863 14.7333 304.237 16.5867 304.237 18.96V30H301.397V18.08C301.397 15.8933 300.863 14.2267 299.797 13.08C298.757 11.9333 297.263 11.36 295.317 11.36C293.157 11.36 291.437 12.04 290.157 13.4C288.903 14.7333 288.277 16.5867 288.277 18.96V30H285.437V8.96H288.157V12.8C288.903 11.52 289.943 10.5333 291.277 9.84C292.61 9.14667 294.143 8.8 295.877 8.8C297.637 8.8 299.157 9.17333 300.437 9.92C301.743 10.6667 302.717 11.7733 303.357 13.24C304.13 11.8533 305.237 10.7733 306.677 10C308.143 9.2 309.81 8.8 311.677 8.8ZM347.137 8.96V30H344.417V25.84C343.563 27.2533 342.43 28.3333 341.017 29.08C339.63 29.8267 338.057 30.2 336.297 30.2C334.323 30.2 332.537 29.7467 330.937 28.84C329.337 27.9333 328.083 26.6667 327.177 25.04C326.27 23.4133 325.817 21.56 325.817 19.48C325.817 17.4 326.27 15.5467 327.177 13.92C328.083 12.2933 329.337 11.04 330.937 10.16C332.537 9.25333 334.323 8.8 336.297 8.8C338.003 8.8 339.537 9.16 340.897 9.88C342.283 10.5733 343.417 11.6 344.297 12.96V8.96H347.137ZM336.537 27.68C338.003 27.68 339.323 27.3467 340.497 26.68C341.697 25.9867 342.63 25.0133 343.297 23.76C343.99 22.5067 344.337 21.08 344.337 19.48C344.337 17.88 343.99 16.4533 343.297 15.2C342.63 13.9467 341.697 12.9867 340.497 12.32C339.323 11.6267 338.003 11.28 336.537 11.28C335.043 11.28 333.697 11.6267 332.497 12.32C331.323 12.9867 330.39 13.9467 329.697 15.2C329.03 16.4533 328.697 17.88 328.697 19.48C328.697 21.08 329.03 22.5067 329.697 23.76C330.39 25.0133 331.323 25.9867 332.497 26.68C333.697 27.3467 335.043 27.68 336.537 27.68ZM374.526 8.96V27.44C374.526 31.0133 373.646 33.6533 371.886 35.36C370.153 37.0933 367.526 37.96 364.006 37.96C362.059 37.96 360.206 37.6667 358.446 37.08C356.713 36.52 355.299 35.7333 354.206 34.72L355.646 32.56C356.659 33.4667 357.886 34.1733 359.326 34.68C360.793 35.1867 362.326 35.44 363.926 35.44C366.593 35.44 368.553 34.8133 369.806 33.56C371.059 32.3333 371.686 30.4133 371.686 27.8V25.12C370.806 26.4533 369.646 27.4667 368.206 28.16C366.793 28.8533 365.219 29.2 363.486 29.2C361.513 29.2 359.713 28.7733 358.086 27.92C356.486 27.04 355.219 25.8267 354.286 24.28C353.379 22.7067 352.926 20.9333 352.926 18.96C352.926 16.9867 353.379 15.2267 354.286 13.68C355.219 12.1333 356.486 10.9333 358.086 10.08C359.686 9.22667 361.486 8.8 363.486 8.8C365.273 8.8 366.886 9.16 368.326 9.88C369.766 10.6 370.926 11.64 371.806 13V8.96H374.526ZM363.766 26.68C365.286 26.68 366.659 26.36 367.886 25.72C369.113 25.0533 370.059 24.1333 370.726 22.96C371.419 21.7867 371.766 20.4533 371.766 18.96C371.766 17.4667 371.419 16.1467 370.726 15C370.059 13.8267 369.113 12.92 367.886 12.28C366.686 11.6133 365.313 11.28 363.766 11.28C362.246 11.28 360.873 11.6 359.646 12.24C358.446 12.88 357.499 13.7867 356.806 14.96C356.139 16.1333 355.806 17.4667 355.806 18.96C355.806 20.4533 356.139 21.7867 356.806 22.96C357.499 24.1333 358.446 25.0533 359.646 25.72C360.873 26.36 362.246 26.68 363.766 26.68ZM385.188 13.08C385.854 11.6667 386.841 10.6 388.148 9.88C389.481 9.16 391.121 8.8 393.068 8.8V11.56L392.388 11.52C390.174 11.52 388.441 12.2 387.188 13.56C385.934 14.92 385.308 16.8267 385.308 19.28V30H382.468V8.96H385.188V13.08ZM407.015 27.68C408.321 27.68 409.521 27.4533 410.615 27C411.735 26.52 412.681 25.8267 413.455 24.92L415.055 26.76C414.121 27.88 412.961 28.7333 411.575 29.32C410.188 29.9067 408.655 30.2 406.975 30.2C404.815 30.2 402.895 29.7467 401.215 28.84C399.535 27.9067 398.228 26.6267 397.295 25C396.361 23.3733 395.895 21.5333 395.895 19.48C395.895 17.4267 396.335 15.5867 397.215 13.96C398.121 12.3333 399.361 11.0667 400.935 10.16C402.508 9.25333 404.295 8.8 406.295 8.8C408.161 8.8 409.841 9.22667 411.335 10.08C412.855 10.9333 414.055 12.12 414.935 13.64C415.841 15.16 416.321 16.8933 416.375 18.84L399.095 22.2C399.628 23.9067 400.588 25.2533 401.975 26.24C403.388 27.2 405.068 27.68 407.015 27.68ZM406.295 11.24C404.828 11.24 403.508 11.5867 402.335 12.28C401.188 12.9467 400.281 13.8933 399.615 15.12C398.975 16.32 398.655 17.7067 398.655 19.28C398.655 19.68 398.668 19.9733 398.695 20.16L413.535 17.28C413.215 15.52 412.401 14.08 411.095 12.96C409.788 11.8133 408.188 11.24 406.295 11.24ZM430.875 30.2C428.795 30.2 426.929 29.7467 425.275 28.84C423.649 27.9333 422.369 26.6667 421.435 25.04C420.502 23.3867 420.035 21.5333 420.035 19.48C420.035 17.4267 420.502 15.5867 421.435 13.96C422.369 12.3333 423.649 11.0667 425.275 10.16C426.929 9.25333 428.795 8.8 430.875 8.8C432.689 8.8 434.302 9.16 435.715 9.88C437.155 10.5733 438.289 11.6 439.115 12.96L436.995 14.4C436.302 13.36 435.422 12.5867 434.355 12.08C433.289 11.5467 432.129 11.28 430.875 11.28C429.355 11.28 427.982 11.6267 426.755 12.32C425.555 12.9867 424.609 13.9467 423.915 15.2C423.249 16.4533 422.915 17.88 422.915 19.48C422.915 21.1067 423.249 22.5467 423.915 23.8C424.609 25.0267 425.555 25.9867 426.755 26.68C427.982 27.3467 429.355 27.68 430.875 27.68C432.129 27.68 433.289 27.4267 434.355 26.92C435.422 26.4133 436.302 25.64 436.995 24.6L439.115 26.04C438.289 27.4 437.155 28.44 435.715 29.16C434.275 29.8533 432.662 30.2 430.875 30.2ZM444.694 8.96H447.534V30H444.694V8.96ZM446.134 4.36C445.548 4.36 445.054 4.16 444.654 3.76C444.254 3.36 444.054 2.88 444.054 2.32C444.054 1.78667 444.254 1.32 444.654 0.919998C445.054 0.519998 445.548 0.319998 446.134 0.319998C446.721 0.319998 447.214 0.519998 447.614 0.919998C448.014 1.29333 448.214 1.74666 448.214 2.28C448.214 2.86667 448.014 3.36 447.614 3.76C447.214 4.16 446.721 4.36 446.134 4.36ZM481.677 8.8C484.317 8.8 486.383 9.56 487.877 11.08C489.397 12.6 490.157 14.84 490.157 17.8V30H487.317V18.08C487.317 15.8933 486.783 14.2267 485.717 13.08C484.677 11.9333 483.197 11.36 481.277 11.36C479.09 11.36 477.37 12.04 476.117 13.4C474.863 14.7333 474.237 16.5867 474.237 18.96V30H471.397V18.08C471.397 15.8933 470.863 14.2267 469.797 13.08C468.757 11.9333 467.263 11.36 465.317 11.36C463.157 11.36 461.437 12.04 460.157 13.4C458.903 14.7333 458.277 16.5867 458.277 18.96V30H455.437V8.96H458.157V12.8C458.903 11.52 459.943 10.5333 461.277 9.84C462.61 9.14667 464.143 8.8 465.877 8.8C467.637 8.8 469.157 9.17333 470.437 9.92C471.743 10.6667 472.717 11.7733 473.357 13.24C474.13 11.8533 475.237 10.7733 476.677 10C478.143 9.2 479.81 8.8 481.677 8.8ZM506.937 27.68C508.243 27.68 509.443 27.4533 510.537 27C511.657 26.52 512.603 25.8267 513.377 24.92L514.977 26.76C514.043 27.88 512.883 28.7333 511.497 29.32C510.11 29.9067 508.577 30.2 506.897 30.2C504.737 30.2 502.817 29.7467 501.137 28.84C499.457 27.9067 498.15 26.6267 497.217 25C496.283 23.3733 495.817 21.5333 495.817 19.48C495.817 17.4267 496.257 15.5867 497.137 13.96C498.043 12.3333 499.283 11.0667 500.857 10.16C502.43 9.25333 504.217 8.8 506.217 8.8C508.083 8.8 509.763 9.22667 511.257 10.08C512.777 10.9333 513.977 12.12 514.857 13.64C515.763 15.16 516.243 16.8933 516.297 18.84L499.017 22.2C499.55 23.9067 500.51 25.2533 501.897 26.24C503.31 27.2 504.99 27.68 506.937 27.68ZM506.217 11.24C504.75 11.24 503.43 11.5867 502.257 12.28C501.11 12.9467 500.203 13.8933 499.537 15.12C498.897 16.32 498.577 17.7067 498.577 19.28C498.577 19.68 498.59 19.9733 498.617 20.16L513.457 17.28C513.137 15.52 512.323 14.08 511.017 12.96C509.71 11.8133 508.11 11.24 506.217 11.24ZM532.797 8.8C535.437 8.8 537.531 9.57333 539.077 11.12C540.651 12.64 541.437 14.8667 541.437 17.8V30H538.597V18.08C538.597 15.8933 538.051 14.2267 536.957 13.08C535.864 11.9333 534.304 11.36 532.277 11.36C530.011 11.36 528.211 12.04 526.877 13.4C525.571 14.7333 524.917 16.5867 524.917 18.96V30H522.077V8.96H524.797V12.84C525.571 11.56 526.637 10.5733 527.997 9.88C529.384 9.16 530.984 8.8 532.797 8.8ZM559.508 28.72C558.974 29.2 558.321 29.5733 557.548 29.84C556.774 30.08 555.961 30.2 555.108 30.2C553.134 30.2 551.614 29.6667 550.548 28.6C549.481 27.5333 548.948 26.0267 548.948 24.08V4.36H551.788V8.96H558.148V11.36H551.788V23.92C551.788 25.1733 552.094 26.1333 552.708 26.8C553.321 27.44 554.214 27.76 555.388 27.76C556.668 27.76 557.708 27.4 558.508 26.68L559.508 28.72ZM572.513 30.2C570.486 30.2 568.66 29.7467 567.033 28.84C565.406 27.9067 564.126 26.6267 563.193 25C562.26 23.3733 561.793 21.5333 561.793 19.48C561.793 17.4267 562.26 15.5867 563.193 13.96C564.126 12.3333 565.406 11.0667 567.033 10.16C568.66 9.25333 570.486 8.8 572.513 8.8C574.54 8.8 576.366 9.25333 577.993 10.16C579.62 11.0667 580.886 12.3333 581.793 13.96C582.726 15.5867 583.193 17.4267 583.193 19.48C583.193 21.5333 582.726 23.3733 581.793 25C580.886 26.6267 579.62 27.9067 577.993 28.84C576.366 29.7467 574.54 30.2 572.513 30.2ZM572.513 27.68C574.006 27.68 575.34 27.3467 576.513 26.68C577.713 25.9867 578.646 25.0133 579.313 23.76C579.98 22.5067 580.313 21.08 580.313 19.48C580.313 17.88 579.98 16.4533 579.313 15.2C578.646 13.9467 577.713 12.9867 576.513 12.32C575.34 11.6267 574.006 11.28 572.513 11.28C571.02 11.28 569.673 11.6267 568.473 12.32C567.3 12.9867 566.366 13.9467 565.673 15.2C565.006 16.4533 564.673 17.88 564.673 19.48C564.673 21.08 565.006 22.5067 565.673 23.76C566.366 25.0133 567.3 25.9867 568.473 26.68C569.673 27.3467 571.02 27.68 572.513 27.68ZM610.3 8.8C612.273 8.8 614.06 9.25333 615.66 10.16C617.26 11.04 618.513 12.2933 619.42 13.92C620.327 15.5467 620.78 17.4 620.78 19.48C620.78 21.5867 620.327 23.4533 619.42 25.08C618.513 26.7067 617.26 27.9733 615.66 28.88C614.087 29.76 612.3 30.2 610.3 30.2C608.593 30.2 607.047 29.8533 605.66 29.16C604.3 28.44 603.18 27.4 602.3 26.04V37.76H599.46V8.96H602.18V13.12C603.033 11.7333 604.153 10.6667 605.54 9.92C606.953 9.17333 608.54 8.8 610.3 8.8ZM610.1 27.68C611.567 27.68 612.9 27.3467 614.1 26.68C615.3 25.9867 616.233 25.0133 616.9 23.76C617.593 22.5067 617.94 21.08 617.94 19.48C617.94 17.88 617.593 16.4667 616.9 15.24C616.233 13.9867 615.3 13.0133 614.1 12.32C612.9 11.6267 611.567 11.28 610.1 11.28C608.607 11.28 607.26 11.6267 606.06 12.32C604.887 13.0133 603.953 13.9867 603.26 15.24C602.593 16.4667 602.26 17.88 602.26 19.48C602.26 21.08 602.593 22.5067 603.26 23.76C603.953 25.0133 604.887 25.9867 606.06 26.68C607.26 27.3467 608.607 27.68 610.1 27.68ZM645.769 8.96V30H643.049V25.84C642.196 27.2533 641.063 28.3333 639.649 29.08C638.263 29.8267 636.689 30.2 634.929 30.2C632.956 30.2 631.169 29.7467 629.569 28.84C627.969 27.9333 626.716 26.6667 625.809 25.04C624.903 23.4133 624.449 21.56 624.449 19.48C624.449 17.4 624.903 15.5467 625.809 13.92C626.716 12.2933 627.969 11.04 629.569 10.16C631.169 9.25333 632.956 8.8 634.929 8.8C636.636 8.8 638.169 9.16 639.529 9.88C640.916 10.5733 642.049 11.6 642.929 12.96V8.96H645.769ZM635.169 27.68C636.636 27.68 637.956 27.3467 639.129 26.68C640.329 25.9867 641.263 25.0133 641.929 23.76C642.623 22.5067 642.969 21.08 642.969 19.48C642.969 17.88 642.623 16.4533 641.929 15.2C641.263 13.9467 640.329 12.9867 639.129 12.32C637.956 11.6267 636.636 11.28 635.169 11.28C633.676 11.28 632.329 11.6267 631.129 12.32C629.956 12.9867 629.023 13.9467 628.329 15.2C627.663 16.4533 627.329 17.88 627.329 19.48C627.329 21.08 627.663 22.5067 628.329 23.76C629.023 25.0133 629.956 25.9867 631.129 26.68C632.329 27.3467 633.676 27.68 635.169 27.68ZM656.399 13.08C657.065 11.6667 658.052 10.6 659.359 9.88C660.692 9.16 662.332 8.8 664.279 8.8V11.56L663.599 11.52C661.385 11.52 659.652 12.2 658.399 13.56C657.145 14.92 656.519 16.8267 656.519 19.28V30H653.679V8.96H656.399V13.08ZM688.426 8.96V30H685.706V25.84C684.852 27.2533 683.719 28.3333 682.306 29.08C680.919 29.8267 679.346 30.2 677.586 30.2C675.612 30.2 673.826 29.7467 672.226 28.84C670.626 27.9333 669.372 26.6667 668.466 25.04C667.559 23.4133 667.106 21.56 667.106 19.48C667.106 17.4 667.559 15.5467 668.466 13.92C669.372 12.2933 670.626 11.04 672.226 10.16C673.826 9.25333 675.612 8.8 677.586 8.8C679.292 8.8 680.826 9.16 682.186 9.88C683.572 10.5733 684.706 11.6 685.586 12.96V8.96H688.426ZM677.826 27.68C679.292 27.68 680.612 27.3467 681.786 26.68C682.986 25.9867 683.919 25.0133 684.586 23.76C685.279 22.5067 685.626 21.08 685.626 19.48C685.626 17.88 685.279 16.4533 684.586 15.2C683.919 13.9467 682.986 12.9867 681.786 12.32C680.612 11.6267 679.292 11.28 677.826 11.28C676.332 11.28 674.986 11.6267 673.786 12.32C672.612 12.9867 671.679 13.9467 670.986 15.2C670.319 16.4533 669.986 17.88 669.986 19.48C669.986 21.08 670.319 22.5067 670.986 23.76C671.679 25.0133 672.612 25.9867 673.786 26.68C674.986 27.3467 676.332 27.68 677.826 27.68ZM717.644 8.8C719.617 8.8 721.404 9.25333 723.004 10.16C724.604 11.04 725.857 12.2933 726.764 13.92C727.67 15.5467 728.124 17.4 728.124 19.48C728.124 21.56 727.67 23.4133 726.764 25.04C725.857 26.6667 724.604 27.9333 723.004 28.84C721.404 29.7467 719.617 30.2 717.644 30.2C715.884 30.2 714.297 29.8267 712.884 29.08C711.497 28.3333 710.377 27.2533 709.524 25.84V30H706.804V0.319998H709.644V12.96C710.524 11.6 711.644 10.5733 713.004 9.88C714.39 9.16 715.937 8.8 717.644 8.8ZM717.444 27.68C718.91 27.68 720.244 27.3467 721.444 26.68C722.644 25.9867 723.577 25.0133 724.244 23.76C724.937 22.5067 725.284 21.08 725.284 19.48C725.284 17.88 724.937 16.4533 724.244 15.2C723.577 13.9467 722.644 12.9867 721.444 12.32C720.244 11.6267 718.91 11.28 717.444 11.28C715.95 11.28 714.604 11.6267 713.404 12.32C712.23 12.9867 711.297 13.9467 710.604 15.2C709.937 16.4533 709.604 17.88 709.604 19.48C709.604 21.08 709.937 22.5067 710.604 23.76C711.297 25.0133 712.23 25.9867 713.404 26.68C714.604 27.3467 715.95 27.68 717.444 27.68ZM742.913 27.68C744.22 27.68 745.42 27.4533 746.513 27C747.633 26.52 748.58 25.8267 749.353 24.92L750.953 26.76C750.02 27.88 748.86 28.7333 747.473 29.32C746.086 29.9067 744.553 30.2 742.873 30.2C740.713 30.2 738.793 29.7467 737.113 28.84C735.433 27.9067 734.126 26.6267 733.193 25C732.26 23.3733 731.793 21.5333 731.793 19.48C731.793 17.4267 732.233 15.5867 733.113 13.96C734.02 12.3333 735.26 11.0667 736.833 10.16C738.406 9.25333 740.193 8.8 742.193 8.8C744.06 8.8 745.74 9.22667 747.233 10.08C748.753 10.9333 749.953 12.12 750.833 13.64C751.74 15.16 752.22 16.8933 752.273 18.84L734.993 22.2C735.526 23.9067 736.486 25.2533 737.873 26.24C739.286 27.2 740.966 27.68 742.913 27.68ZM742.193 11.24C740.726 11.24 739.406 11.5867 738.233 12.28C737.086 12.9467 736.18 13.8933 735.513 15.12C734.873 16.32 734.553 17.7067 734.553 19.28C734.553 19.68 734.566 19.9733 734.593 20.16L749.433 17.28C749.113 15.52 748.3 14.08 746.993 12.96C745.686 11.8133 744.086 11.24 742.193 11.24ZM763.974 30.2C762.08 30.2 760.614 29.6667 759.574 28.6C758.56 27.5333 758.054 26.0533 758.054 24.16V0.319998H760.894V23.92C760.894 25.1733 761.187 26.1333 761.774 26.8C762.36 27.44 763.24 27.76 764.414 27.76C765.16 27.76 765.8 27.64 766.334 27.4L766.534 29.76C765.707 30.0533 764.854 30.2 763.974 30.2ZM779.007 27.68C780.314 27.68 781.514 27.4533 782.607 27C783.727 26.52 784.674 25.8267 785.447 24.92L787.047 26.76C786.114 27.88 784.954 28.7333 783.567 29.32C782.18 29.9067 780.647 30.2 778.967 30.2C776.807 30.2 774.887 29.7467 773.207 28.84C771.527 27.9067 770.22 26.6267 769.287 25C768.354 23.3733 767.887 21.5333 767.887 19.48C767.887 17.4267 768.327 15.5867 769.207 13.96C770.114 12.3333 771.354 11.0667 772.927 10.16C774.5 9.25333 776.287 8.8 778.287 8.8C780.154 8.8 781.834 9.22667 783.327 10.08C784.847 10.9333 786.047 12.12 786.927 13.64C787.834 15.16 788.314 16.8933 788.367 18.84L771.087 22.2C771.62 23.9067 772.58 25.2533 773.967 26.24C775.38 27.2 777.06 27.68 779.007 27.68ZM778.287 11.24C776.82 11.24 775.5 11.5867 774.327 12.28C773.18 12.9467 772.274 13.8933 771.607 15.12C770.967 16.32 770.647 17.7067 770.647 19.28C770.647 19.68 770.66 19.9733 770.687 20.16L785.527 17.28C785.207 15.52 784.394 14.08 783.087 12.96C781.78 11.8133 780.18 11.24 778.287 11.24ZM808.992 27.64V30H791.872V28.12L797.872 20.52H793.512V18.24H799.672L805.112 11.36H792.112V8.96H808.752V10.84L802.912 18.24H807.352V20.52H801.112L795.512 27.64H808.992ZM833.66 8.96V30H830.94V25.84C830.087 27.2533 828.953 28.3333 827.54 29.08C826.153 29.8267 824.58 30.2 822.82 30.2C820.847 30.2 819.06 29.7467 817.46 28.84C815.86 27.9333 814.607 26.6667 813.7 25.04C812.793 23.4133 812.34 21.56 812.34 19.48C812.34 17.4 812.793 15.5467 813.7 13.92C814.607 12.2933 815.86 11.04 817.46 10.16C819.06 9.25333 820.847 8.8 822.82 8.8C824.527 8.8 826.06 9.16 827.42 9.88C828.807 10.5733 829.94 11.6 830.82 12.96V8.96H833.66ZM823.06 27.68C824.527 27.68 825.847 27.3467 827.02 26.68C828.22 25.9867 829.153 25.0133 829.82 23.76C830.513 22.5067 830.86 21.08 830.86 19.48C830.86 17.88 830.513 16.4533 829.82 15.2C829.153 13.9467 828.22 12.9867 827.02 12.32C825.847 11.6267 824.527 11.28 823.06 11.28C821.567 11.28 820.22 11.6267 819.02 12.32C817.847 12.9867 816.913 13.9467 816.22 15.2C815.553 16.4533 815.22 17.88 815.22 19.48C815.22 21.08 815.553 22.5067 816.22 23.76C816.913 25.0133 817.847 25.9867 819.02 26.68C820.22 27.3467 821.567 27.68 823.06 27.68Z" fill="white"/>
</svg>
