<svg width="75" height="87" viewBox="0 0 75 87" fill="none" xmlns="http://www.w3.org/2000/svg">
<path d="M71.0238 65.3568C69.5095 61.1497 67.5304 57.3167 65.7734 53.918C65.1715 52.7625 64.5812 51.5987 64.0027 50.4268H10.8014C10.2229 51.5987 9.63268 52.7625 9.03077 53.918C7.2738 57.3167 5.29464 61.1497 3.78037 65.3568C1.68475 71.1238 0.621231 77.337 0.656104 83.609C0.656104 84.409 0.926205 85.1763 1.40699 85.742C1.88777 86.3077 2.53985 86.6256 3.21978 86.6256C3.89971 86.6256 4.55179 86.3077 5.03257 85.742C5.51335 85.1763 5.78345 84.409 5.78345 83.609C5.78345 77.6161 6.77474 72.7695 8.20698 68.5503C26.6449 69.1416 33.707 80.0977 34.9717 84.5622C35.1427 85.1614 35.4692 85.6822 35.9053 86.0512C36.3414 86.4202 36.865 86.6187 37.4021 86.6187C37.9392 86.6187 38.4628 86.4202 38.8988 86.0512C39.3349 85.6822 39.6615 85.1614 39.8324 84.5622C41.0972 80.0977 48.1593 69.1416 66.5972 68.5543C68.2301 73.3391 69.0533 78.453 69.0207 83.609C69.0207 84.409 69.2908 85.1763 69.7716 85.742C70.2524 86.3077 70.9045 86.6256 71.5844 86.6256C72.2643 86.6256 72.9164 86.3077 73.3972 85.742C73.878 85.1763 74.1481 84.409 74.1481 83.609C74.1481 76.3089 72.8491 70.4166 71.0238 65.3568ZM12.4148 1.98486C12.1478 1.24882 11.6433 0.667727 11.0122 0.369407C10.3811 0.0710866 9.6751 0.0799796 9.04957 0.394129C8.42403 0.708279 7.93018 1.30195 7.67665 2.04455C7.42312 2.78714 7.43067 3.61783 7.69766 4.35387L7.71133 4.39409L7.76602 4.53889L7.97112 5.13415C9.10891 8.51078 10.1262 11.9419 11.0202 15.4186C12.7054 21.9867 14.329 30.2762 14.329 37.6446C14.3198 39.9499 13.9633 42.2349 13.2762 44.3937H61.528C60.8409 42.2349 60.4844 39.9499 60.4751 37.6446C60.4751 30.2762 62.0988 21.9867 63.784 15.4186C64.6782 11.942 65.6955 8.51087 66.833 5.13415L67.0381 4.53889L67.0894 4.39409L67.1031 4.35789V4.34985C67.2434 3.98376 67.3201 3.58841 67.3288 3.18696C67.3375 2.78552 67.278 2.38607 67.1538 2.01204C67.0296 1.638 66.8432 1.29692 66.6055 1.00878C66.3677 0.720645 66.0835 0.491258 65.7695 0.334073C65.4554 0.176887 65.1178 0.0950666 64.7766 0.0934095C64.4353 0.0917524 64.0972 0.170292 63.782 0.324423C63.4669 0.478553 63.181 0.705172 62.9413 0.99099C62.7016 1.27681 62.5128 1.61607 62.3859 1.98889C62.3859 1.98889 62.3893 1.98486 64.7479 3.16736L62.3859 1.98889L62.3825 2.00497L62.3654 2.05324L62.3039 2.22619L62.0749 2.88179C60.8803 6.42585 59.8128 10.0275 58.8754 13.6771C57.2312 20.0923 55.5358 28.4703 55.3615 36.3495H19.4427C19.2718 28.4663 17.5729 20.0923 15.9288 13.6771C14.9911 10.0275 13.9237 6.42595 12.7293 2.88179L12.5003 2.22619L12.4387 2.05324L12.4217 2.00497L12.4182 1.99291L12.4148 1.98486Z" fill="white"/>
</svg>
