<svg width="40" height="40" viewBox="0 0 40 40" fill="none" xmlns="http://www.w3.org/2000/svg">
<path d="M38.3332 16.6667C38.3332 15.7826 37.982 14.9348 37.3569 14.3096C36.7317 13.6845 35.8839 13.3333 34.9998 13.3333H24.4665L26.0665 5.71667C26.0998 5.55 26.1165 5.36667 26.1165 5.18333C26.1165 4.5 25.8332 3.86667 25.3832 3.41667L23.6165 1.66667L12.6498 12.6333C12.0332 13.25 11.6665 14.0833 11.6665 15V31.6667C11.6665 32.5507 12.0177 33.3986 12.6428 34.0237C13.2679 34.6488 14.1158 35 14.9998 35H29.9998C31.3832 35 32.5665 34.1667 33.0665 32.9667L38.0998 21.2167C38.2498 20.8333 38.3332 20.4333 38.3332 20V16.6667ZM1.6665 35H8.33317V15H1.6665V35Z" fill="#001AFF"/>
</svg>
