<svg width="377" height="65" viewBox="0 0 377 65" fill="none" xmlns="http://www.w3.org/2000/svg">
<path d="M79.5784 34.2576C79.5784 32.4688 79.9449 30.9088 80.678 29.5776C81.411 28.2256 82.4268 27.1856 83.7254 26.4576C85.0239 25.7088 86.511 25.3344 88.1865 25.3344C90.3438 25.3344 92.1241 25.8752 93.5274 26.9568C94.9516 28.0176 95.9046 29.5152 96.3863 31.4496H91.6424C91.391 30.7008 90.9617 30.1184 90.3543 29.7024C89.7678 29.2656 89.0348 29.0472 88.1551 29.0472C86.8985 29.0472 85.9036 29.5048 85.1705 30.42C84.4375 31.3144 84.071 32.5936 84.071 34.2576C84.071 35.9008 84.4375 37.18 85.1705 38.0952C85.9036 38.9896 86.8985 39.4368 88.1551 39.4368C89.9354 39.4368 91.0978 38.6464 91.6424 37.0656H96.3863C95.9046 38.9376 94.9516 40.4248 93.5274 41.5272C92.1031 42.6296 90.3229 43.1808 88.1865 43.1808C86.511 43.1808 85.0239 42.8168 83.7254 42.0888C82.4268 41.34 81.411 40.3 80.678 38.9688C79.9449 37.6168 79.5784 36.0464 79.5784 34.2576ZM98.4775 34.1952C98.4775 32.448 98.823 30.8984 99.5142 29.5464C100.226 28.1944 101.179 27.1544 102.373 26.4264C103.588 25.6984 104.939 25.3344 106.426 25.3344C107.724 25.3344 108.855 25.5944 109.819 26.1144C110.803 26.6344 111.589 27.2896 112.175 28.08V25.6152H116.605V42.9H112.175V40.3728C111.61 41.184 110.824 41.86 109.819 42.4008C108.834 42.9208 107.693 43.1808 106.394 43.1808C104.928 43.1808 103.588 42.8064 102.373 42.0576C101.179 41.3088 100.226 40.2584 99.5142 38.9064C98.823 37.5336 98.4775 35.9632 98.4775 34.1952ZM112.175 34.2576C112.175 33.1968 111.966 32.292 111.547 31.5432C111.128 30.7736 110.562 30.1912 109.85 29.796C109.138 29.38 108.374 29.172 107.557 29.172C106.74 29.172 105.986 29.3696 105.295 29.7648C104.604 30.16 104.038 30.7424 103.598 31.512C103.179 32.2608 102.97 33.1552 102.97 34.1952C102.97 35.2352 103.179 36.1504 103.598 36.9408C104.038 37.7104 104.604 38.3032 105.295 38.7192C106.007 39.1352 106.761 39.3432 107.557 39.3432C108.374 39.3432 109.138 39.1456 109.85 38.7504C110.562 38.3344 111.128 37.752 111.547 37.0032C111.966 36.2336 112.175 35.3184 112.175 34.2576ZM125.299 28.1112C125.864 27.3208 126.639 26.6656 127.624 26.1456C128.629 25.6048 129.771 25.3344 131.048 25.3344C132.535 25.3344 133.876 25.6984 135.069 26.4264C136.284 27.1544 137.237 28.1944 137.928 29.5464C138.64 30.8776 138.996 32.4272 138.996 34.1952C138.996 35.9632 138.64 37.5336 137.928 38.9064C137.237 40.2584 136.284 41.3088 135.069 42.0576C133.876 42.8064 132.535 43.1808 131.048 43.1808C129.771 43.1808 128.64 42.9208 127.655 42.4008C126.692 41.8808 125.906 41.2256 125.299 40.4352V51.1368H120.901V25.6152H125.299V28.1112ZM134.504 34.1952C134.504 33.1552 134.284 32.2608 133.844 31.512C133.425 30.7424 132.86 30.16 132.148 29.7648C131.456 29.3696 130.703 29.172 129.886 29.172C129.09 29.172 128.336 29.38 127.624 29.796C126.933 30.1912 126.367 30.7736 125.927 31.5432C125.508 32.3128 125.299 33.2176 125.299 34.2576C125.299 35.2976 125.508 36.2024 125.927 36.972C126.367 37.7416 126.933 38.3344 127.624 38.7504C128.336 39.1456 129.09 39.3432 129.886 39.3432C130.703 39.3432 131.456 39.1352 132.148 38.7192C132.86 38.3032 133.425 37.7104 133.844 36.9408C134.284 36.1712 134.504 35.256 134.504 34.1952ZM148.853 43.1808C147.429 43.1808 146.152 42.9312 145.021 42.432C143.89 41.912 142.989 41.2152 142.319 40.3416C141.669 39.468 141.313 38.5008 141.251 37.44H145.68C145.764 38.1056 146.089 38.6568 146.654 39.0936C147.241 39.5304 147.963 39.7488 148.822 39.7488C149.66 39.7488 150.309 39.5824 150.77 39.2496C151.252 38.9168 151.492 38.4904 151.492 37.9704C151.492 37.4088 151.199 36.9928 150.613 36.7224C150.047 36.4312 149.136 36.1192 147.88 35.7864C146.581 35.4744 145.513 35.152 144.675 34.8192C143.858 34.4864 143.146 33.9768 142.539 33.2904C141.952 32.604 141.659 31.6784 141.659 30.5136C141.659 29.5568 141.931 28.6832 142.476 27.8928C143.041 27.1024 143.837 26.4784 144.864 26.0208C145.911 25.5632 147.136 25.3344 148.539 25.3344C150.613 25.3344 152.267 25.8544 153.503 26.8944C154.739 27.9136 155.42 29.2968 155.545 31.044H151.335C151.273 30.3576 150.979 29.8168 150.456 29.4216C149.953 29.0056 149.272 28.7976 148.414 28.7976C147.618 28.7976 147 28.9432 146.56 29.2344C146.141 29.5256 145.932 29.9312 145.932 30.4512C145.932 31.0336 146.225 31.4808 146.811 31.7928C147.398 32.084 148.309 32.3856 149.545 32.6976C150.801 33.0096 151.838 33.332 152.655 33.6648C153.472 33.9976 154.173 34.5176 154.76 35.2248C155.367 35.9112 155.681 36.8264 155.702 37.9704C155.702 38.9688 155.42 39.8632 154.854 40.6536C154.309 41.444 153.514 42.068 152.466 42.5256C151.44 42.9624 150.236 43.1808 148.853 43.1808ZM175.492 33.8832C175.492 34.5072 175.45 35.0688 175.366 35.568H162.643C162.747 36.816 163.187 37.7936 163.962 38.5008C164.737 39.208 165.69 39.5616 166.821 39.5616C168.455 39.5616 169.617 38.8648 170.308 37.4712H175.052C174.55 39.1352 173.586 40.508 172.162 41.5896C170.738 42.6504 168.989 43.1808 166.915 43.1808C165.24 43.1808 163.732 42.8168 162.391 42.0888C161.072 41.34 160.035 40.2896 159.281 38.9376C158.548 37.5856 158.182 36.0256 158.182 34.2576C158.182 32.4688 158.548 30.8984 159.281 29.5464C160.014 28.1944 161.04 27.1544 162.36 26.4264C163.679 25.6984 165.198 25.3344 166.915 25.3344C168.57 25.3344 170.047 25.688 171.345 26.3952C172.665 27.1024 173.68 28.1112 174.393 29.4216C175.126 30.7112 175.492 32.1984 175.492 33.8832ZM170.937 32.6352C170.916 31.512 170.507 30.6176 169.711 29.952C168.916 29.2656 167.942 28.9224 166.79 28.9224C165.701 28.9224 164.779 29.2552 164.025 29.9208C163.292 30.5656 162.842 31.4704 162.674 32.6352H170.937ZM200.317 25.3656C202.453 25.3656 204.17 26.0208 205.469 27.3312C206.788 28.6208 207.448 30.4304 207.448 32.76V42.9H203.05V33.3528C203.05 32.0008 202.704 30.9712 202.013 30.264C201.322 29.536 200.379 29.172 199.186 29.172C197.992 29.172 197.039 29.536 196.327 30.264C195.635 30.9712 195.29 32.0008 195.29 33.3528V42.9H190.892V33.3528C190.892 32.0008 190.546 30.9712 189.855 30.264C189.164 29.536 188.221 29.172 187.027 29.172C185.813 29.172 184.849 29.536 184.137 30.264C183.446 30.9712 183.1 32.0008 183.1 33.3528V42.9H178.702V25.6152H183.1V27.7056C183.666 26.9776 184.388 26.4056 185.268 25.9896C186.169 25.5736 187.153 25.3656 188.221 25.3656C189.583 25.3656 190.797 25.6568 191.865 26.2392C192.934 26.8008 193.761 27.612 194.347 28.6728C194.913 27.6744 195.73 26.8736 196.798 26.2704C197.887 25.6672 199.06 25.3656 200.317 25.3656ZM210.492 34.1952C210.492 32.448 210.837 30.8984 211.528 29.5464C212.24 28.1944 213.193 27.1544 214.387 26.4264C215.602 25.6984 216.953 25.3344 218.44 25.3344C219.739 25.3344 220.87 25.5944 221.833 26.1144C222.817 26.6344 223.603 27.2896 224.189 28.08V25.6152H228.619V42.9H224.189V40.3728C223.624 41.184 222.838 41.86 221.833 42.4008C220.849 42.9208 219.707 43.1808 218.409 43.1808C216.943 43.1808 215.602 42.8064 214.387 42.0576C213.193 41.3088 212.24 40.2584 211.528 38.9064C210.837 37.5336 210.492 35.9632 210.492 34.1952ZM224.189 34.2576C224.189 33.1968 223.98 32.292 223.561 31.5432C223.142 30.7736 222.577 30.1912 221.864 29.796C221.152 29.38 220.388 29.172 219.571 29.172C218.754 29.172 218 29.3696 217.309 29.7648C216.618 30.16 216.052 30.7424 215.613 31.512C215.194 32.2608 214.984 33.1552 214.984 34.1952C214.984 35.2352 215.194 36.1504 215.613 36.9408C216.052 37.7104 216.618 38.3032 217.309 38.7192C218.021 39.1352 218.775 39.3432 219.571 39.3432C220.388 39.3432 221.152 39.1456 221.864 38.7504C222.577 38.3344 223.142 37.752 223.561 37.0032C223.98 36.2336 224.189 35.3184 224.189 34.2576ZM239.731 25.3344C241.03 25.3344 242.171 25.5944 243.156 26.1144C244.14 26.6136 244.915 27.2688 245.481 28.08V25.6152H249.91V43.0248C249.91 44.6264 249.586 46.0512 248.936 47.2992C248.287 48.568 247.313 49.5664 246.015 50.2944C244.716 51.0432 243.145 51.4176 241.302 51.4176C238.831 51.4176 236.799 50.8456 235.207 49.7016C233.637 48.5576 232.746 46.9976 232.537 45.0216H236.904C237.134 45.812 237.626 46.436 238.38 46.8936C239.155 47.372 240.087 47.6112 241.177 47.6112C242.454 47.6112 243.491 47.2264 244.287 46.4568C245.083 45.708 245.481 44.564 245.481 43.0248V40.3416C244.915 41.1528 244.13 41.8288 243.124 42.3696C242.14 42.9104 241.009 43.1808 239.731 43.1808C238.265 43.1808 236.925 42.8064 235.71 42.0576C234.495 41.3088 233.532 40.2584 232.82 38.9064C232.129 37.5336 231.783 35.9632 231.783 34.1952C231.783 32.448 232.129 30.8984 232.82 29.5464C233.532 28.1944 234.485 27.1544 235.679 26.4264C236.893 25.6984 238.244 25.3344 239.731 25.3344ZM245.481 34.2576C245.481 33.1968 245.271 32.292 244.852 31.5432C244.433 30.7736 243.868 30.1912 243.156 29.796C242.444 29.38 241.679 29.172 240.862 29.172C240.046 29.172 239.292 29.3696 238.6 29.7648C237.909 30.16 237.344 30.7424 236.904 31.512C236.485 32.2608 236.276 33.1552 236.276 34.1952C236.276 35.2352 236.485 36.1504 236.904 36.9408C237.344 37.7104 237.909 38.3032 238.6 38.7192C239.312 39.1352 240.066 39.3432 240.862 39.3432C241.679 39.3432 242.444 39.1456 243.156 38.7504C243.868 38.3344 244.433 37.752 244.852 37.0032C245.271 36.2336 245.481 35.3184 245.481 34.2576ZM258.605 28.2984C259.17 27.3832 259.903 26.6656 260.804 26.1456C261.726 25.6256 262.773 25.3656 263.946 25.3656V29.952H262.783C261.401 29.952 260.354 30.2744 259.642 30.9192C258.951 31.564 258.605 32.6872 258.605 34.2888V42.9H254.207V25.6152H258.605V28.2984ZM283.088 33.8832C283.088 34.5072 283.046 35.0688 282.962 35.568H270.238C270.343 36.816 270.783 37.7936 271.558 38.5008C272.333 39.208 273.286 39.5616 274.417 39.5616C276.05 39.5616 277.213 38.8648 277.904 37.4712H282.648C282.145 39.1352 281.182 40.508 279.758 41.5896C278.333 42.6504 276.584 43.1808 274.511 43.1808C272.835 43.1808 271.327 42.8168 269.987 42.0888C268.667 41.34 267.631 40.2896 266.877 38.9376C266.144 37.5856 265.777 36.0256 265.777 34.2576C265.777 32.4688 266.144 30.8984 266.877 29.5464C267.61 28.1944 268.636 27.1544 269.956 26.4264C271.275 25.6984 272.793 25.3344 274.511 25.3344C276.166 25.3344 277.642 25.688 278.941 26.3952C280.26 27.1024 281.276 28.1112 281.988 29.4216C282.721 30.7112 283.088 32.1984 283.088 33.8832ZM278.532 32.6352C278.511 31.512 278.103 30.6176 277.307 29.952C276.511 29.2656 275.537 28.9224 274.385 28.9224C273.296 28.9224 272.375 29.2552 271.621 29.9208C270.888 30.5656 270.437 31.4704 270.27 32.6352H278.532ZM285.168 34.2576C285.168 32.4688 285.534 30.9088 286.267 29.5776C287 28.2256 288.016 27.1856 289.315 26.4576C290.613 25.7088 292.1 25.3344 293.776 25.3344C295.933 25.3344 297.713 25.8752 299.117 26.9568C300.541 28.0176 301.494 29.5152 301.976 31.4496H297.232C296.98 30.7008 296.551 30.1184 295.944 29.7024C295.357 29.2656 294.624 29.0472 293.744 29.0472C292.488 29.0472 291.493 29.5048 290.76 30.42C290.027 31.3144 289.66 32.5936 289.66 34.2576C289.66 35.9008 290.027 37.18 290.76 38.0952C291.493 38.9896 292.488 39.4368 293.744 39.4368C295.525 39.4368 296.687 38.6464 297.232 37.0656H301.976C301.494 38.9376 300.541 40.4248 299.117 41.5272C297.693 42.6296 295.912 43.1808 293.776 43.1808C292.1 43.1808 290.613 42.8168 289.315 42.0888C288.016 41.34 287 40.3 286.267 38.9688C285.534 37.6168 285.168 36.0464 285.168 34.2576ZM321.377 33.8832C321.377 34.5072 321.335 35.0688 321.251 35.568H308.527C308.632 36.816 309.072 37.7936 309.847 38.5008C310.622 39.208 311.575 39.5616 312.706 39.5616C314.339 39.5616 315.502 38.8648 316.193 37.4712H320.937C320.434 39.1352 319.471 40.508 318.047 41.5896C316.622 42.6504 314.874 43.1808 312.8 43.1808C311.124 43.1808 309.616 42.8168 308.276 42.0888C306.957 41.34 305.92 40.2896 305.166 38.9376C304.433 37.5856 304.066 36.0256 304.066 34.2576C304.066 32.4688 304.433 30.8984 305.166 29.5464C305.899 28.1944 306.925 27.1544 308.245 26.4264C309.564 25.6984 311.083 25.3344 312.8 25.3344C314.455 25.3344 315.931 25.688 317.23 26.3952C318.549 27.1024 319.565 28.1112 320.277 29.4216C321.01 30.7112 321.377 32.1984 321.377 33.8832ZM316.821 32.6352C316.8 31.512 316.392 30.6176 315.596 29.952C314.8 29.2656 313.826 28.9224 312.674 28.9224C311.585 28.9224 310.664 29.2552 309.91 29.9208C309.177 30.5656 308.726 31.4704 308.559 32.6352H316.821ZM323.457 34.1952C323.457 32.448 323.802 30.8984 324.494 29.5464C325.206 28.1944 326.169 27.1544 327.384 26.4264C328.599 25.6984 329.95 25.3344 331.437 25.3344C332.568 25.3344 333.646 25.584 334.673 26.0832C335.699 26.5616 336.516 27.2064 337.123 28.0176V19.812H341.584V42.9H337.123V40.3416C336.578 41.1944 335.814 41.8808 334.83 42.4008C333.845 42.9208 332.704 43.1808 331.405 43.1808C329.939 43.1808 328.599 42.8064 327.384 42.0576C326.169 41.3088 325.206 40.2584 324.494 38.9064C323.802 37.5336 323.457 35.9632 323.457 34.1952ZM337.154 34.2576C337.154 33.1968 336.945 32.292 336.526 31.5432C336.107 30.7736 335.542 30.1912 334.83 29.796C334.118 29.38 333.353 29.172 332.536 29.172C331.719 29.172 330.965 29.3696 330.274 29.7648C329.583 30.16 329.018 30.7424 328.578 31.512C328.159 32.2608 327.949 33.1552 327.949 34.1952C327.949 35.2352 328.159 36.1504 328.578 36.9408C329.018 37.7104 329.583 38.3032 330.274 38.7192C330.986 39.1352 331.74 39.3432 332.536 39.3432C333.353 39.3432 334.118 39.1456 334.83 38.7504C335.542 38.3344 336.107 37.752 336.526 37.0032C336.945 36.2336 337.154 35.3184 337.154 34.2576ZM353.608 43.1808C351.932 43.1808 350.424 42.8168 349.084 42.0888C347.743 41.34 346.685 40.2896 345.911 38.9376C345.157 37.5856 344.78 36.0256 344.78 34.2576C344.78 32.4896 345.167 30.9296 345.942 29.5776C346.738 28.2256 347.816 27.1856 349.178 26.4576C350.539 25.7088 352.058 25.3344 353.733 25.3344C355.409 25.3344 356.927 25.7088 358.289 26.4576C359.65 27.1856 360.718 28.2256 361.493 29.5776C362.289 30.9296 362.687 32.4896 362.687 34.2576C362.687 36.0256 362.279 37.5856 361.462 38.9376C360.666 40.2896 359.577 41.34 358.194 42.0888C356.833 42.8168 355.304 43.1808 353.608 43.1808ZM353.608 39.3744C354.404 39.3744 355.147 39.1872 355.838 38.8128C356.55 38.4176 357.116 37.8352 357.535 37.0656C357.954 36.296 358.163 35.36 358.163 34.2576C358.163 32.6144 357.723 31.356 356.844 30.4824C355.985 29.588 354.927 29.1408 353.67 29.1408C352.414 29.1408 351.356 29.588 350.497 30.4824C349.66 31.356 349.241 32.6144 349.241 34.2576C349.241 35.9008 349.649 37.1696 350.466 38.064C351.304 38.9376 352.351 39.3744 353.608 39.3744ZM370.312 28.2984C370.878 27.3832 371.611 26.6656 372.511 26.1456C373.433 25.6256 374.48 25.3656 375.653 25.3656V29.952H374.491C373.108 29.952 372.061 30.2744 371.349 30.9192C370.658 31.564 370.312 32.6872 370.312 34.2888V42.9H365.914V25.6152H370.312V28.2984Z" fill="white"/>
<path d="M23.0006 55.6996C26.6414 55.6996 30.0667 54.2911 32.6411 51.7346L52.0965 32.4159C54.6488 29.8731 56.0817 26.429 56.0812 22.8388C56.0807 19.2485 54.6468 15.8048 52.0938 13.2626C50.8299 12.002 49.3269 11.0028 47.6717 10.3226C46.0165 9.64253 44.2419 9.29506 42.4507 9.30035C38.8099 9.30035 35.3873 10.7087 32.813 13.2654L13.3575 32.5839C10.8058 35.1267 9.37283 38.5701 9.37231 42.1601C9.3718 45.7499 10.8038 49.1937 13.3548 51.7372C14.6192 52.9979 16.1226 53.9972 17.7782 54.6774C19.4339 55.3574 21.209 55.7049 23.0006 55.6996ZM36.6663 17.0949C37.4239 16.3387 38.325 15.7391 39.3174 15.3309C40.3098 14.9229 41.3737 14.7141 42.4479 14.7171C44.635 14.7171 46.6914 15.5621 48.2349 17.0949C49.7672 18.6198 50.628 20.6859 50.6286 22.8401C50.6291 24.9943 49.7692 27.0608 48.2376 28.5864L40.348 36.4189L28.7794 24.9247L36.6663 17.0949Z" fill="white"/>
</svg>
