<svg width="28" height="38" viewBox="0 0 28 38" fill="none" xmlns="http://www.w3.org/2000/svg">
<path d="M27.75 14C27.7514 11.6828 27.1671 9.40286 26.0515 7.37191C24.9359 5.34096 23.3251 3.62488 21.3688 2.38308C19.4125 1.14127 17.174 0.414008 14.8614 0.268845C12.5488 0.123683 10.2369 0.565326 8.14068 1.55275C6.04441 2.54018 4.23169 4.04137 2.87088 5.91688C1.51006 7.79239 0.645301 9.98138 0.35691 12.2806C0.0685201 14.5797 0.365856 16.9145 1.2213 19.068C2.07674 21.2215 3.46255 23.1239 5.25 24.5984V36.5C5.24985 36.7132 5.30422 36.9229 5.40795 37.1091C5.51167 37.2953 5.66131 37.452 5.84263 37.5641C6.02395 37.6762 6.23093 37.7401 6.44389 37.7496C6.65686 37.7592 6.86873 37.7141 7.05938 37.6187L14 34.1563L20.9422 37.6266C21.1162 37.7098 21.3071 37.7521 21.5 37.75C21.8315 37.75 22.1495 37.6183 22.3839 37.3839C22.6183 37.1495 22.75 36.8315 22.75 36.5V24.5984C24.314 23.3104 25.5734 21.692 26.4378 19.8596C27.3023 18.0272 27.7504 16.0261 27.75 14ZM2.75 14C2.75 11.775 3.4098 9.59989 4.64597 7.74984C5.88213 5.89978 7.63914 4.45784 9.69481 3.60635C11.7505 2.75487 14.0125 2.53208 16.1948 2.96617C18.3771 3.40025 20.3816 4.47171 21.955 6.04505C23.5283 7.61839 24.5998 9.62295 25.0338 11.8052C25.4679 13.9875 25.2451 16.2495 24.3936 18.3052C23.5422 20.3609 22.1002 22.1179 20.2502 23.354C18.4001 24.5902 16.225 25.25 14 25.25C11.0173 25.2467 8.15777 24.0604 6.0487 21.9513C3.93964 19.8422 2.75331 16.9827 2.75 14ZM5.25 14C5.25 12.2694 5.76318 10.5777 6.72464 9.13876C7.6861 7.69983 9.05267 6.57832 10.6515 5.91605C12.2504 5.25379 14.0097 5.08051 15.707 5.41813C17.4044 5.75575 18.9635 6.58911 20.1872 7.81282C21.4109 9.03653 22.2443 10.5956 22.5819 12.293C22.9195 13.9903 22.7462 15.7496 22.0839 17.3485C21.4217 18.9473 20.3002 20.3139 18.8612 21.2754C17.4223 22.2368 15.7306 22.75 14 22.75C11.6801 22.7475 9.45596 21.8249 7.81556 20.1844C6.17515 18.544 5.25248 16.3199 5.25 14Z" fill="#009E00"/>
</svg>
