<svg width="48" height="47" viewBox="0 0 48 47" fill="none" xmlns="http://www.w3.org/2000/svg">
<path d="M14.0006 46.6996C17.6414 46.6996 21.0667 45.2911 23.6411 42.7346L43.0965 23.4159C45.6489 20.8731 47.0817 17.429 47.0812 13.8388C47.0807 10.2485 45.6468 6.80477 43.0938 4.26262C41.8299 3.00201 40.3269 2.00275 38.6717 1.32263C37.0165 0.642526 35.2419 0.295061 33.4507 0.300352C29.8099 0.300352 26.3873 1.70868 23.813 4.26535L4.35753 23.5839C1.80583 26.1267 0.372825 29.5701 0.372315 33.1601C0.371804 36.7499 1.80383 40.1937 4.35478 42.7372C5.61917 43.9979 7.12259 44.9972 8.77825 45.6774C10.4339 46.3574 12.209 46.7049 14.0006 46.6996ZM27.6663 8.09489C28.4239 7.33868 29.325 6.73912 30.3174 6.33092C31.3098 5.92285 32.3737 5.71407 33.4479 5.71706C35.635 5.71706 37.6914 6.56206 39.2349 8.09489C40.7672 9.61979 41.628 11.6859 41.6286 13.8401C41.6291 15.9943 40.7692 18.0608 39.2376 19.5864L31.348 27.4189L19.7794 15.9247L27.6663 8.09489Z" fill="white"/>
</svg>
