<svg width="1440" height="320" viewBox="0 0 1440 320" fill="none" xmlns="http://www.w3.org/2000/svg">
<g clip-path="url(#clip0_34_103)">
<path d="M1440 32L1387.43 48C1334.87 64 1229.73 96 1124.6 122.7C1019.47 149 914.333 171 809.2 154.7C704.067 139 598.933 85 493.8 69.3C388.667 53 283.533 75 178.4 69.3C73.2666 64 -31.8667 32 -84.4333 16L-137 4.57764e-05H-84.4333C-31.8667 4.57764e-05 73.2666 4.57764e-05 178.4 4.57764e-05C283.533 4.57764e-05 388.667 4.57764e-05 493.8 4.57764e-05C598.933 4.57764e-05 704.067 4.57764e-05 809.2 4.57764e-05C914.333 4.57764e-05 1019.47 4.57764e-05 1124.6 4.57764e-05C1229.73 4.57764e-05 1334.87 4.57764e-05 1387.43 4.57764e-05H1440V32Z" fill="#00A83D"/>
</g>
<defs>
<clipPath id="clip0_34_103">
<rect width="1577" height="320" fill="white" transform="matrix(-1 0 0 -1 1440 320)"/>
</clipPath>
</defs>
</svg>
